<svg width="180" height="180" viewBox="0 0 180 180" fill="none" xmlns="http://www.w3.org/2000/svg">
<g filter="url(#filter0_d_2156_9)">
<circle cx="90" cy="86" r="60" fill="white"/>
</g>
<g clip-path="url(#clip0_2156_9)">
<path d="M102.911 93.6273C102.724 93.1079 102.151 92.8386 101.632 93.0258C101.113 93.213 100.843 93.7858 101.03 94.3051C101.035 94.3178 101.04 94.3304 101.045 94.343C101.957 96.7221 102.023 98.5414 101.225 99.3411C100.257 100.307 97.8473 100.005 94.7765 98.5354C90.6653 96.4007 86.9284 93.6121 83.7118 90.2786C75.8818 82.4477 72.6511 74.7637 74.6493 72.7655C75.2869 72.2619 76.1157 72.0685 76.9104 72.2377C77.461 72.2781 77.9402 71.8646 77.9806 71.314C78.0198 70.7818 77.634 70.3128 77.1044 70.2484C75.7145 70.0025 74.2886 70.4077 73.2359 71.348C69.5733 75.0096 75.1721 84.5609 82.2983 91.6881C85.6747 95.182 89.5979 98.1022 93.9138 100.334C94.6954 100.708 95.5008 101.03 96.3249 101.298L89.2226 103.991C79.7388 100.386 72.9116 91.978 71.3296 81.9559C71.244 81.4105 70.7325 81.0376 70.1871 81.1232C69.6416 81.2088 69.2688 81.7203 69.3544 82.2657C69.5113 83.2654 69.7212 84.265 69.9781 85.2426C72.28 93.9641 78.3428 101.209 86.5217 105.013L74.8322 109.436C74.7786 109.347 74.7112 109.266 74.6323 109.198C71.6615 106.813 69.7975 103.315 69.4743 99.519L69.0105 93.9022C68.974 93.3581 68.5032 92.9465 67.9589 92.983C67.9486 92.9837 67.9382 92.9844 67.9279 92.9856C67.3777 93.0293 66.9669 93.511 67.0107 94.0613C67.0108 94.0635 67.011 94.0659 67.0113 94.0682L67.4831 99.683C67.8345 103.741 69.7272 107.509 72.7721 110.214L64.4333 113.371L65.9327 107.217C66.0635 106.68 65.7347 106.139 65.198 106.009C64.6613 105.878 64.1203 106.207 63.9895 106.743L62.0392 114.74C61.9078 115.276 62.2359 115.818 62.7722 115.949C62.9689 115.997 63.1754 115.984 63.3647 115.913L100.35 101.918C100.409 101.889 100.465 101.854 100.516 101.814C101.317 101.691 102.059 101.321 102.638 100.756C103.629 99.7649 104.482 97.7227 102.911 93.6273Z" fill="#F2994A"/>
<path d="M112.345 91.0493C106.941 89.0263 101.1 88.4591 95.4081 89.4049L91.8365 90.0047C91.2943 90.1089 90.9393 90.6328 91.0435 91.175C91.1443 91.6988 91.6384 92.0512 92.1664 91.9759L95.737 91.3811C101.083 90.4923 106.568 91.0254 111.643 92.9265C111.755 92.9664 111.874 92.9864 111.994 92.9855C112.546 92.9864 112.994 92.5397 112.995 91.9875C112.996 91.5696 112.736 91.1953 112.345 91.0493Z" fill="#F2994A"/>
<path d="M115.898 75.5624C115.661 75.0638 115.064 74.8521 114.566 75.0896L93.5741 85.0857C93.0757 85.323 92.8639 85.9193 93.1012 86.4179C93.1012 86.418 93.1013 86.4182 93.1013 86.4182C93.3386 86.9166 93.935 87.1284 94.4335 86.8911C94.4336 86.8911 94.4337 86.891 94.4338 86.891L115.426 76.8948C115.924 76.6574 116.136 76.0609 115.898 75.5624Z" fill="#F2994A"/>
<path d="M86.2876 62.7844C86.1776 62.2434 85.65 61.8939 85.1089 62.0039C84.5679 62.1138 84.2184 62.6415 84.3284 63.1825C84.3307 63.1945 84.3335 63.2064 84.3364 63.2183C85.6016 68.8709 85.0802 74.7771 82.844 80.1207L81.3905 83.6083C81.1805 84.1165 81.4203 84.6989 81.9273 84.9118C82.0488 84.9629 82.1793 84.989 82.3112 84.9888C82.7146 84.9888 83.0785 84.7464 83.2338 84.374L84.6882 80.8904C87.0842 75.1665 87.6431 68.8397 86.2876 62.7844Z" fill="#F2994A"/>
<path d="M116.992 91.9861C115.335 91.9861 113.993 93.3287 113.993 94.9849C113.993 96.6411 115.335 97.9837 116.992 97.9837C118.648 97.9837 119.99 96.6411 119.99 94.9849C119.99 93.3287 118.648 91.9861 116.992 91.9861ZM116.992 95.9845C116.439 95.9845 115.992 95.537 115.992 94.9849C115.992 94.4329 116.439 93.9853 116.992 93.9853C117.544 93.9853 117.991 94.4329 117.991 94.9849C117.991 95.537 117.544 95.9845 116.992 95.9845Z" fill="#F2994A"/>
<path d="M93.0013 63.9968C91.345 63.9968 90.0024 65.3394 90.0024 66.9957C90.0024 68.6519 91.345 69.9945 93.0013 69.9945C94.6575 69.9945 96.0001 68.6519 96.0001 66.9957C96.0001 65.3394 94.6575 63.9968 93.0013 63.9968ZM93.0013 67.9953C92.4492 67.9953 92.0017 67.5477 92.0017 66.9957C92.0017 66.4436 92.4492 65.996 93.0013 65.996C93.5533 65.996 94.0009 66.4436 94.0009 66.9957C94.0009 67.5477 93.5533 67.9953 93.0013 67.9953Z" fill="#F2994A"/>
<path d="M84.0046 59.9984C85.1087 59.9984 86.0038 59.1034 86.0038 57.9992C86.0038 56.8951 85.1087 56 84.0046 56C82.9005 56 82.0054 56.8951 82.0054 57.9992C82.0054 59.1034 82.9005 59.9984 84.0046 59.9984Z" fill="#F2994A"/>
<path d="M111.994 60.998C111.442 60.998 110.994 61.4456 110.994 61.9977V62.9973C110.994 63.5493 111.442 63.9969 111.994 63.9969C112.546 63.9969 112.993 63.5493 112.993 62.9973V61.9977C112.993 61.4456 112.546 60.998 111.994 60.998Z" fill="#F2994A"/>
<path d="M111.994 56C111.442 56 110.994 56.4476 110.994 56.9996V57.9992C110.994 58.5513 111.442 58.9988 111.994 58.9988C112.546 58.9988 112.993 58.5513 112.993 57.9992V56.9996C112.993 56.4476 112.546 56 111.994 56Z" fill="#F2994A"/>
<path d="M114.992 58.9988H113.993C113.441 58.9988 112.993 59.4464 112.993 59.9984C112.993 60.5504 113.441 60.998 113.993 60.998H114.992C115.544 60.998 115.992 60.5504 115.992 59.9984C115.992 59.4464 115.544 58.9988 114.992 58.9988Z" fill="#F2994A"/>
<path d="M109.994 58.9988H108.995C108.443 58.9988 107.995 59.4464 107.995 59.9984C107.995 60.5504 108.443 60.998 108.995 60.998H109.994C110.546 60.998 110.994 60.5504 110.994 59.9984C110.994 59.4464 110.546 58.9988 109.994 58.9988Z" fill="#F2994A"/>
<path d="M104.996 66.9746H99.9771C99.4251 66.9746 98.9775 67.4222 98.9775 67.9742V72.9933C98.9775 73.5453 99.4251 73.9929 99.9771 73.9929H104.996C105.548 73.9929 105.996 73.5453 105.996 72.9933V67.9742C105.996 67.4222 105.548 66.9746 104.996 66.9746ZM103.997 71.9937H100.977V68.9738H103.997V71.9937Z" fill="#F2994A"/>
<path d="M97.7142 75.3221C97.3472 74.9304 96.7364 74.8984 96.3306 75.2496L86.3345 84.2461C85.9244 84.6155 85.8913 85.2473 86.2605 85.6576C86.6299 86.0676 87.2618 86.1008 87.672 85.7315L97.6681 76.735C98.071 76.3576 98.0917 75.725 97.7142 75.3221Z" fill="#F2994A"/>
<path d="M115.992 78.991C115.44 78.991 114.993 79.4385 114.993 79.9906V80.9902C114.993 81.5422 115.44 81.9898 115.992 81.9898C116.544 81.9898 116.992 81.5422 116.992 80.9902V79.9906C116.992 79.4385 116.544 78.991 115.992 78.991Z" fill="#F2994A"/>
<path d="M120.233 78.8192L119.527 78.1125C119.129 77.7289 118.497 77.7398 118.113 78.1369C117.739 78.5243 117.739 79.1384 118.113 79.5259L118.82 80.2326C119.217 80.6162 119.85 80.6052 120.233 80.2081C120.607 79.8207 120.607 79.2065 120.233 78.8192Z" fill="#F2994A"/>
<path d="M120.99 74.9927H119.99C119.438 74.9927 118.991 75.4403 118.991 75.9923C118.991 76.5443 119.438 76.9919 119.99 76.9919H120.99C121.542 76.9919 121.99 76.5443 121.99 75.9923C121.99 75.4403 121.542 74.9927 120.99 74.9927Z" fill="#F2994A"/>
<path d="M120.209 71.7518C119.822 71.3777 119.208 71.3777 118.82 71.7518L118.113 72.4585C117.723 72.849 117.723 73.4818 118.114 73.8722C118.301 74.0595 118.555 74.1648 118.82 74.1648C119.085 74.1648 119.34 74.0594 119.527 73.8719L120.234 73.1652C120.617 72.7681 120.606 72.1352 120.209 71.7518Z" fill="#F2994A"/>
<path d="M115.992 69.9946C115.44 69.9946 114.993 70.4422 114.993 70.9942V71.9938C114.993 72.5459 115.44 72.9935 115.992 72.9935C116.544 72.9935 116.992 72.5459 116.992 71.9938V70.9942C116.992 70.4422 116.544 69.9946 115.992 69.9946Z" fill="#F2994A"/>
<path d="M113.871 72.4585L113.164 71.7518C112.767 71.3683 112.134 71.3792 111.751 71.7763C111.377 72.1637 111.377 72.7778 111.751 73.1653L112.458 73.872C112.855 74.2556 113.487 74.2446 113.871 73.8475C114.245 73.46 114.245 72.8459 113.871 72.4585Z" fill="#F2994A"/>
<path d="M73.9593 60.3222C73.8416 59.9605 73.5289 59.6972 73.1526 59.6424L70.2188 59.2156L68.9103 56.5576C68.6187 56.0624 67.9808 55.8974 67.4856 56.189C67.3334 56.2786 67.2066 56.4054 67.117 56.5576L65.8025 59.2156L62.8686 59.6424C62.3222 59.7213 61.9433 60.2282 62.0221 60.7746C62.0535 60.9921 62.1557 61.1932 62.3129 61.3468L64.435 63.416L63.9352 66.3378C63.8393 66.8815 64.2021 67.4 64.7458 67.496C64.9647 67.5346 65.1901 67.4992 65.3867 67.3954L68.0106 66.0119L70.6346 67.3914C71.1233 67.6483 71.7277 67.4605 71.9846 66.9718C72.0869 66.7773 72.1222 66.5545 72.0851 66.3378L71.5852 63.416L73.7084 61.3468C73.9802 61.0807 74.0774 60.6836 73.9593 60.3222ZM69.8099 62.3514C69.5745 62.5807 69.4669 62.911 69.522 63.235L69.77 64.6795L68.4755 63.9967C68.1844 63.8439 67.8368 63.8439 67.5458 63.9967L66.2463 64.6785L66.4942 63.234C66.5503 62.9113 66.4446 62.5814 66.2113 62.3514L65.1607 61.3288L66.6112 61.1178C66.9368 61.0706 67.2183 60.8661 67.3639 60.5711L68.0106 59.2586L68.6584 60.5711C68.8038 60.8658 69.0848 61.0702 69.4101 61.1178L70.8595 61.3288L69.8099 62.3514Z" fill="#F2994A"/>
<path d="M118.613 106.105H118.609L118.197 105.488C115.888 102.034 112.257 99.6863 108.16 98.9972C107.613 98.9192 107.107 99.2991 107.029 99.8456C106.954 100.374 107.306 100.868 107.83 100.968C110.785 101.47 113.478 102.971 115.458 105.221C113.793 105.52 112.337 106.52 111.46 107.967C110.383 109.895 111.073 112.331 113.002 113.407C114.93 114.484 117.365 113.793 118.442 111.865C118.853 111.071 119.075 110.193 119.091 109.299C120.154 110.844 120.239 112.861 119.31 114.49C119.028 114.965 119.185 115.578 119.659 115.86C120.134 116.142 120.747 115.985 121.029 115.51C121.038 115.495 121.047 115.48 121.055 115.464C122.885 112.195 121.807 108.064 118.613 106.105ZM116.699 110.89C116.165 111.856 114.949 112.207 113.982 111.674C113.016 111.14 112.664 109.924 113.198 108.958C113.201 108.952 113.204 108.947 113.207 108.941C113.797 107.975 114.792 107.328 115.914 107.18C116.088 107.175 116.26 107.215 116.414 107.296C117.257 107.767 117.302 109.808 116.699 110.89Z" fill="#F2994A"/>
</g>
<defs>
<filter id="filter0_d_2156_9" x="0" y="0" width="180" height="180" filterUnits="userSpaceOnUse" color-interpolation-filters="sRGB">
<feFlood flood-opacity="0" result="BackgroundImageFix"/>
<feColorMatrix in="SourceAlpha" type="matrix" values="0 0 0 0 0 0 0 0 0 0 0 0 0 0 0 0 0 0 127 0" result="hardAlpha"/>
<feOffset dy="4"/>
<feGaussianBlur stdDeviation="15"/>
<feColorMatrix type="matrix" values="0 0 0 0 0 0 0 0 0 0 0 0 0 0 0 0 0 0 0.08 0"/>
<feBlend mode="normal" in2="BackgroundImageFix" result="effect1_dropShadow_2156_9"/>
<feBlend mode="normal" in="SourceGraphic" in2="effect1_dropShadow_2156_9" result="shape"/>
</filter>
<clipPath id="clip0_2156_9">
<rect width="60" height="60" fill="white" transform="translate(62 56)"/>
</clipPath>
</defs>
</svg>
