<svg width="134" height="134" viewBox="0 0 134 134" fill="none" xmlns="http://www.w3.org/2000/svg">
<g filter="url(#filter0_d_2161_67)">
<circle cx="67" cy="63" r="37" fill="white"/>
</g>
<g clip-path="url(#clip0_2161_67)">
<path d="M59.6855 61.1797C60.1563 61.0856 60.637 61.2873 60.8992 61.6886L61.2388 62.2084C62.6044 58.6299 65.9466 55.5885 66.1263 55.4269C66.5633 55.0336 67.2245 55.024 67.6728 55.4044C67.8466 55.5518 71.6282 58.7918 72.9838 62.5074L79.5824 61.1275C81.1191 53.452 76.6875 43.8516 64.6193 41.0323C63.6409 40.804 62.8477 41.8308 63.3109 42.7157C64.6762 45.3246 65.6197 47.5802 64.2818 50.0473L61.3542 46.3992C60.9088 45.8442 60.0791 45.8131 59.5913 46.3196C57.52 48.4703 54.0449 52.8612 54.0449 58.1047C54.0449 59.5338 54.2299 60.904 54.5948 62.1958L59.6855 61.1797Z" fill="#F2994A"/>
<path d="M61.0898 69.1255H72.8315V81H61.0898V69.1255Z" fill="#F2994A"/>
<path d="M58.7417 67.9534C58.7417 67.3062 59.2674 66.7816 59.9159 66.7816H61.424L59.3666 63.6333L47.9913 65.9038L47.0091 73.7453C46.9701 74.0567 47.0578 74.3706 47.2526 74.6167L51.9492 80.554C52.2612 80.9484 52.7902 81.1003 53.2645 80.9319L58.7417 78.9866V67.9534Z" fill="#F2994A"/>
<path d="M86.7814 70.4754L81.5155 63.1179L72.1217 65.0822L71.2114 66.7817H74.0059C74.6543 66.7817 75.18 67.3064 75.18 67.9535V79.5632L76.8342 80.7732C77.3099 81.1211 77.9703 81.063 78.3775 80.6374L86.6751 71.9659C87.0645 71.559 87.1091 70.9333 86.7814 70.4754Z" fill="#F2994A"/>
<path d="M66.9333 57.9158C65.4166 59.4939 63.0889 62.438 63.0151 64.9264L64.2276 66.7817H68.5486L70.3089 63.4951C70.4005 63.3241 70.5329 63.1819 70.6904 63.0762C69.85 60.9675 67.9934 58.953 66.9333 57.9158Z" fill="#F2994A"/>
</g>
<defs>
<filter id="filter0_d_2161_67" x="0" y="0" width="134" height="134" filterUnits="userSpaceOnUse" color-interpolation-filters="sRGB">
<feFlood flood-opacity="0" result="BackgroundImageFix"/>
<feColorMatrix in="SourceAlpha" type="matrix" values="0 0 0 0 0 0 0 0 0 0 0 0 0 0 0 0 0 0 127 0" result="hardAlpha"/>
<feOffset dy="4"/>
<feGaussianBlur stdDeviation="15"/>
<feColorMatrix type="matrix" values="0 0 0 0 0 0 0 0 0 0 0 0 0 0 0 0 0 0 0.08 0"/>
<feBlend mode="normal" in2="BackgroundImageFix" result="effect1_dropShadow_2161_67"/>
<feBlend mode="normal" in="SourceGraphic" in2="effect1_dropShadow_2161_67" result="shape"/>
</filter>
<clipPath id="clip0_2161_67">
<rect width="40" height="40" fill="white" transform="translate(47 41)"/>
</clipPath>
</defs>
</svg>
