<svg width="134" height="134" viewBox="0 0 134 134" fill="none" xmlns="http://www.w3.org/2000/svg">
<g filter="url(#filter0_d_2161_20)">
<circle cx="67" cy="63" r="37" fill="white"/>
</g>
<g clip-path="url(#clip0_2161_20)">
<path d="M87.0597 62.1049C86.9153 62.0745 86.779 62.046 86.6577 62.0145C85.2832 61.657 84.6558 61.4611 84.1919 60.5655L82.4349 57.0082C81.8702 55.9181 80.4121 55.0311 79.1845 55.0311H76.0563V50.9234C76.0563 50.1858 75.4562 49.5857 74.7185 49.5857L52.9309 49.6076C52.2131 49.6076 51.6717 50.178 51.6717 50.9346V52.1487H46.0903C44.9378 52.1488 44 53.0865 44 54.2392C44 55.3919 44.9378 56.3295 46.0903 56.3295H51.6716V58.333H48.0174C46.8648 58.333 45.927 59.2708 45.927 60.4234C45.927 61.576 46.8648 62.5137 48.0174 62.5137H51.6716V64.5172H49.9444C48.7918 64.5172 47.8541 65.455 47.8541 66.6076C47.8541 67.7602 48.7918 68.6979 49.9444 68.6979H51.6716V70.7934C51.6716 71.531 52.2717 72.1311 53.0093 72.1311H55.2757C55.6286 74.5501 57.7165 76.414 60.2322 76.414C62.7481 76.414 64.8361 74.5501 65.1891 72.1311H74.3612C74.4089 72.1311 74.4577 72.1279 74.5064 72.1247C74.8567 74.5468 76.9459 76.414 79.4638 76.414C81.9797 76.414 84.0676 74.5501 84.4207 72.1311H87.676C88.9575 72.1311 90.0001 71.0886 90.0001 69.8072V65.864C90 62.7218 88.2305 62.3505 87.0597 62.1049ZM79.4638 69.5837C80.4683 69.5837 81.2855 70.4006 81.2855 71.4048C81.2855 72.409 80.4683 73.2259 79.4638 73.2259C78.4597 73.2259 77.6427 72.409 77.6427 71.4048C77.6427 70.4006 78.4597 69.5837 79.4638 69.5837ZM76.0563 61.8216V56.9712H78.4468C79.3656 56.9712 80.499 57.6606 80.9197 58.4724L82.4832 61.6379C82.5163 61.702 82.5507 61.763 82.5864 61.8215H76.0563V61.8216ZM62.0539 71.4047C62.0539 72.4088 61.2367 73.2258 60.2322 73.2258C59.2281 73.2258 58.4113 72.4089 58.4113 71.4047C58.4113 70.4005 59.2281 69.5836 60.2322 69.5836C61.2367 69.5837 62.0539 70.4006 62.0539 71.4047Z" fill="#F2994A"/>
</g>
<defs>
<filter id="filter0_d_2161_20" x="0" y="0" width="134" height="134" filterUnits="userSpaceOnUse" color-interpolation-filters="sRGB">
<feFlood flood-opacity="0" result="BackgroundImageFix"/>
<feColorMatrix in="SourceAlpha" type="matrix" values="0 0 0 0 0 0 0 0 0 0 0 0 0 0 0 0 0 0 127 0" result="hardAlpha"/>
<feOffset dy="4"/>
<feGaussianBlur stdDeviation="15"/>
<feColorMatrix type="matrix" values="0 0 0 0 0 0 0 0 0 0 0 0 0 0 0 0 0 0 0.08 0"/>
<feBlend mode="normal" in2="BackgroundImageFix" result="effect1_dropShadow_2161_20"/>
<feBlend mode="normal" in="SourceGraphic" in2="effect1_dropShadow_2161_20" result="shape"/>
</filter>
<clipPath id="clip0_2161_20">
<rect width="46" height="46" fill="white" transform="translate(44 40)"/>
</clipPath>
</defs>
</svg>
