<svg width="134" height="134" viewBox="0 0 134 134" fill="none" xmlns="http://www.w3.org/2000/svg">
<g filter="url(#filter0_d_2161_21)">
<circle cx="67" cy="63" r="37" fill="white"/>
</g>
<g clip-path="url(#clip0_2161_21)">
<path d="M83.3177 58.0625H82.4684C82.1926 57.1992 81.8445 56.3606 81.4276 55.5549L82.029 54.9535C83.4872 53.4969 83.4481 51.1625 82.0295 49.7453L80.2552 47.9711C78.8388 46.5529 76.504 46.5118 75.047 47.9705L74.4451 48.5724C73.6394 48.1555 72.8007 47.8074 71.9375 47.5316V46.6823C71.9375 44.6519 70.2856 43 68.2552 43H65.7448C63.7144 43 62.0625 44.6519 62.0625 46.6823V47.5316C61.1993 47.8073 60.3606 48.1555 59.5549 48.5724L58.9536 47.9711C57.4995 46.5152 55.1647 46.5494 53.7455 47.9706L51.971 49.7449C50.5529 51.1615 50.5119 53.496 51.9705 54.9531L52.5724 55.555C52.1555 56.3607 51.8074 57.1992 51.5316 58.0626H50.6823C48.652 58.0625 47 59.7144 47 61.7448V64.2552C47 66.2856 48.652 67.9375 50.6823 67.9375H51.5316C51.8074 68.8008 52.1555 69.6394 52.5724 70.4451L51.971 71.0465C50.5128 72.5031 50.5519 74.8375 51.9705 76.2547L53.7448 78.0289C55.1612 79.4471 57.496 79.4882 58.953 78.0295L59.5549 77.4276C60.3606 77.8445 61.1993 78.1926 62.0625 78.4684V79.3177C62.0625 81.3481 63.7145 83 65.7448 83H68.2552C70.2856 83 71.9376 81.3481 71.9376 79.3177V78.4684C72.8008 78.1927 73.6395 77.8445 74.4452 77.4276L75.0465 78.0289C76.5006 79.4848 78.8353 79.4506 80.2546 78.0294L82.0291 76.255C83.4472 74.8384 83.4882 72.5039 82.0295 71.0468L81.4277 70.4449C81.8446 69.6392 82.1927 68.8007 82.4685 67.9373H83.3177C85.3481 67.9373 87.0001 66.2855 87.0001 64.2551V61.7446C87 59.7144 85.348 58.0625 83.3177 58.0625ZM67 71.7031C62.201 71.7031 58.2969 67.7989 58.2969 63C58.2969 58.2011 62.201 54.2969 67 54.2969C71.799 54.2969 75.7031 58.2011 75.7031 63C75.7031 67.7989 71.799 71.7031 67 71.7031Z" fill="#F2994A"/>
</g>
<defs>
<filter id="filter0_d_2161_21" x="0" y="0" width="134" height="134" filterUnits="userSpaceOnUse" color-interpolation-filters="sRGB">
<feFlood flood-opacity="0" result="BackgroundImageFix"/>
<feColorMatrix in="SourceAlpha" type="matrix" values="0 0 0 0 0 0 0 0 0 0 0 0 0 0 0 0 0 0 127 0" result="hardAlpha"/>
<feOffset dy="4"/>
<feGaussianBlur stdDeviation="15"/>
<feColorMatrix type="matrix" values="0 0 0 0 0 0 0 0 0 0 0 0 0 0 0 0 0 0 0.08 0"/>
<feBlend mode="normal" in2="BackgroundImageFix" result="effect1_dropShadow_2161_21"/>
<feBlend mode="normal" in="SourceGraphic" in2="effect1_dropShadow_2161_21" result="shape"/>
</filter>
<clipPath id="clip0_2161_21">
<rect width="40" height="40" fill="white" transform="translate(47 43)"/>
</clipPath>
</defs>
</svg>
