<svg width="134" height="134" viewBox="0 0 134 134" fill="none" xmlns="http://www.w3.org/2000/svg">
<g filter="url(#filter0_d_2161_12)">
<circle cx="67" cy="63" r="37" fill="white"/>
</g>
<g clip-path="url(#clip0_2161_12)">
<path d="M77.9951 51.9723C77.8264 51.8036 77.6049 51.7192 77.3833 51.7192C77.1618 51.7192 76.9402 51.8035 76.7716 51.9722C76.4342 52.3095 76.4342 52.8585 76.7716 53.1957C77.109 53.5332 77.6578 53.5331 77.995 53.1957V53.1956C78.1584 53.0322 78.2484 52.815 78.2484 52.5839C78.2485 52.353 78.1585 52.1357 77.9951 51.9723Z" fill="#F2994A"/>
<path d="M63.6723 64.6694C63.4381 64.4351 63.217 64.3218 63.0085 64.3287C62.8002 64.3358 62.5929 64.4422 62.3869 64.6483L61.6914 65.3437L62.998 66.6503L63.6934 65.9548C63.8995 65.7488 64.0059 65.5416 64.013 65.3332C64.0201 65.1249 63.9066 64.9037 63.6723 64.6694Z" fill="#F2994A"/>
<path d="M86.9419 58.4407L85.0361 47.8997C84.7673 46.4124 83.5874 45.2325 82.1002 44.9636L71.5591 43.0579C70.3843 42.8455 69.1796 43.2227 68.3358 44.0665L48.0668 64.3356C47.3789 65.0235 47 65.9381 47 66.9109C47 67.8837 47.3788 68.7984 48.0668 69.4862L60.5136 81.933C61.2015 82.6209 62.1161 82.9998 63.089 82.9998C64.0618 82.9998 64.9764 82.6209 65.6643 81.933L85.9333 61.664C86.7771 60.82 87.1541 59.615 86.9419 58.4407ZM62.0041 73.2144C61.9549 73.3807 61.8554 73.5387 61.7057 73.6885C61.5557 73.8385 61.3978 73.9379 61.2315 73.987C61.0653 74.0363 60.9285 74.0069 60.8206 73.8991L56.3601 69.4386C56.2525 69.331 56.2161 69.2011 56.2512 69.0489C56.2862 68.8967 56.3694 68.7551 56.5006 68.6239L58.9381 66.1864C59.0458 66.0787 59.1747 66.0436 59.3244 66.0809C59.4744 66.1184 59.6123 66.2003 59.7388 66.3269C59.8746 66.4628 59.9601 66.6068 59.9953 66.7589C60.0303 66.9112 59.9963 67.0387 59.8933 67.1417L58.074 68.961L59.2611 70.1482L60.3218 69.0875C60.4247 68.9846 60.5477 68.9459 60.6906 68.9716C60.8334 68.9974 60.9634 69.0689 61.0804 69.1859C61.1881 69.2936 61.256 69.4178 61.2841 69.5582C61.3121 69.6986 61.2724 69.8228 61.1647 69.9305L60.104 70.9912L61.9163 72.8035C62.0242 72.9113 62.0533 73.0482 62.0041 73.2144ZM67.9749 67.1382C67.9492 67.4075 67.8543 67.6242 67.6904 67.7881C67.5264 67.9521 67.3415 68.0011 67.1354 67.9356L64.3047 67.0295L63.8411 67.4931L65.5339 69.1859C65.6417 69.2937 65.6708 69.4307 65.6217 69.5969C65.5724 69.7633 65.4729 69.9213 65.3232 70.071C65.1732 70.221 65.0153 70.3204 64.8491 70.3695C64.6828 70.4189 64.546 70.3895 64.4382 70.2817L59.9707 65.8142C59.8817 65.7252 59.8361 65.6164 59.8337 65.4875C59.8315 65.3588 59.8795 65.2451 59.9779 65.1468L61.4319 63.6928C62.5839 62.5408 63.6611 62.4658 64.6632 63.4679C65.3936 64.1986 65.5856 64.9572 65.2391 65.7438L67.6484 66.4393C67.7047 66.4487 67.7585 66.4792 67.81 66.5307C67.9457 66.6666 68.0007 66.869 67.9749 67.1382ZM71.8559 63.5383L69.3553 66.0389C69.2241 66.1701 69.0825 66.2532 68.9302 66.2883C68.778 66.3235 68.6482 66.2871 68.5404 66.1793L64.08 61.7189C63.9723 61.6112 63.9359 61.4814 63.9711 61.3292C64.0061 61.1769 64.0893 61.0354 64.2204 60.9041L66.7211 58.4035C66.8288 58.2958 66.9577 58.2607 67.1074 58.298C67.2574 58.3355 67.3954 58.4175 67.5218 58.544C67.6576 58.6799 67.7432 58.8239 67.7783 58.976C67.8133 59.1283 67.7793 59.2558 67.6764 59.3588L65.7938 61.2414L66.981 62.4286L68.0347 61.3748C68.1376 61.2719 68.2607 61.2332 68.4035 61.2589C68.5463 61.2847 68.6764 61.3561 68.7933 61.4731C68.9011 61.5808 68.9689 61.705 68.997 61.8454C69.025 61.9859 68.9853 62.1101 68.8776 62.2178L67.8239 63.2715L69.0179 64.4656L70.9005 62.583C71.0034 62.4801 71.1311 62.4461 71.2833 62.4811C71.4356 62.5164 71.5794 62.6018 71.7153 62.7376C71.8416 62.864 71.9237 63.0022 71.9612 63.152C71.9988 63.3019 71.9635 63.4306 71.8559 63.5383ZM75.6419 59.7522L73.1411 62.253C73.01 62.3842 72.8683 62.4673 72.716 62.5024C72.5639 62.5375 72.4341 62.5012 72.3263 62.3934L67.8658 57.9329C67.7582 57.8253 67.7218 57.6954 67.7569 57.5433C67.792 57.391 67.8751 57.2494 68.0063 57.1182L70.5069 54.6176C70.6146 54.5099 70.7435 54.4747 70.8932 54.5121C71.0431 54.5497 71.1811 54.6315 71.3076 54.7581C71.4434 54.894 71.5289 55.0379 71.5641 55.1901C71.5991 55.3424 71.5651 55.4699 71.4621 55.5729L69.5796 57.4554L70.7668 58.6426L71.8205 57.5889C71.9234 57.486 72.0464 57.4472 72.1892 57.4729C72.3321 57.4987 72.4621 57.5703 72.579 57.6872C72.6867 57.795 72.7546 57.9191 72.7828 58.0595C72.8107 58.2 72.771 58.3242 72.6634 58.4318L71.6096 59.4856L72.8037 60.6797L74.6863 58.7971C74.7892 58.6942 74.9169 58.6603 75.0691 58.6953C75.2214 58.7304 75.3653 58.8158 75.5011 58.9517C75.6274 59.078 75.7095 59.2163 75.7471 59.3661C75.7849 59.5158 75.7496 59.6446 75.6419 59.7522ZM79.6539 54.8544C79.028 55.4804 78.2057 55.7933 77.3835 55.7933C76.5612 55.7933 75.739 55.4804 75.1131 54.8544C73.861 53.6024 73.861 51.5654 75.1131 50.3134C76.3649 49.0615 78.4021 49.0614 79.6539 50.3134C80.2605 50.9199 80.5944 51.7262 80.5944 52.5839C80.5944 53.4415 80.2604 54.2479 79.6539 54.8544Z" fill="#F2994A"/>
</g>
<defs>
<filter id="filter0_d_2161_12" x="0" y="0" width="134" height="134" filterUnits="userSpaceOnUse" color-interpolation-filters="sRGB">
<feFlood flood-opacity="0" result="BackgroundImageFix"/>
<feColorMatrix in="SourceAlpha" type="matrix" values="0 0 0 0 0 0 0 0 0 0 0 0 0 0 0 0 0 0 127 0" result="hardAlpha"/>
<feOffset dy="4"/>
<feGaussianBlur stdDeviation="15"/>
<feColorMatrix type="matrix" values="0 0 0 0 0 0 0 0 0 0 0 0 0 0 0 0 0 0 0.08 0"/>
<feBlend mode="normal" in2="BackgroundImageFix" result="effect1_dropShadow_2161_12"/>
<feBlend mode="normal" in="SourceGraphic" in2="effect1_dropShadow_2161_12" result="shape"/>
</filter>
<clipPath id="clip0_2161_12">
<rect width="40" height="40" fill="white" transform="translate(47 43)"/>
</clipPath>
</defs>
</svg>
