<svg width="36" height="36" viewBox="0 0 36 36" fill="none" xmlns="http://www.w3.org/2000/svg">
<circle cx="18" cy="18" r="18" fill="#F2994A"/>
<g clip-path="url(#clip0_3_170)">
<path d="M26.9825 14.292C26.9403 13.3356 26.7857 12.6781 26.5641 12.1084C26.3356 11.5036 25.9839 10.9621 25.5232 10.512C25.0731 10.0549 24.5281 9.69969 23.9303 9.4747C23.3573 9.25315 22.7032 9.09848 21.7468 9.05632C20.7832 9.01058 20.4773 9 18.0335 9C15.5897 9 15.2838 9.01058 14.3238 9.05274C13.3674 9.09491 12.7099 9.24971 12.1402 9.47113C11.5353 9.69969 10.9939 10.0513 10.5438 10.512C10.0866 10.9621 9.73157 11.5072 9.50644 12.1049C9.28489 12.6781 9.13022 13.3321 9.08805 14.2885C9.04231 15.252 9.03174 15.5579 9.03174 18.0018C9.03174 20.4456 9.04231 20.7515 9.08448 21.7115C9.12665 22.6679 9.28145 23.3254 9.50301 23.8952C9.73157 24.4999 10.0866 25.0414 10.5438 25.4915C10.9939 25.9486 11.5389 26.3038 12.1367 26.5288C12.7099 26.7504 13.3638 26.905 14.3203 26.9472C15.2802 26.9895 15.5862 26.9999 18.0301 26.9999C20.4739 26.9999 20.7798 26.9895 21.7398 26.9472C22.6962 26.905 23.3537 26.7504 23.9233 26.5288C25.133 26.0611 26.0894 25.1047 26.5571 23.8952C26.7785 23.322 26.9333 22.6679 26.9755 21.7115C27.0177 20.7515 27.0282 20.4456 27.0282 18.0018C27.0282 15.5579 27.0247 15.252 26.9825 14.292ZM25.3616 21.6411C25.3228 22.5202 25.1752 22.9949 25.0521 23.3114C24.7496 24.0956 24.1273 24.7179 23.3431 25.0204C23.0266 25.1434 22.5485 25.2911 21.6729 25.3297C20.7235 25.372 20.4387 25.3824 18.0371 25.3824C15.6354 25.3824 15.3471 25.372 14.4011 25.3297C13.522 25.2911 13.0473 25.1434 12.7309 25.0204C12.3406 24.8761 11.9854 24.6476 11.6971 24.3487C11.3982 24.0568 11.1697 23.7052 11.0255 23.315C10.9024 22.9985 10.7547 22.5202 10.7161 21.6447C10.6738 20.6953 10.6634 20.4104 10.6634 18.0088C10.6634 15.6071 10.6738 15.3188 10.7161 14.373C10.7547 13.4939 10.9024 13.0192 11.0255 12.7027C11.1697 12.3123 11.3982 11.9573 11.7007 11.6688C11.9924 11.3699 12.3441 11.1414 12.7344 10.9973C13.0509 10.8742 13.5292 10.7266 14.4047 10.6878C15.3541 10.6457 15.639 10.6351 18.0405 10.6351C20.4457 10.6351 20.7305 10.6457 21.6764 10.6878C22.5555 10.7266 23.0302 10.8742 23.3467 10.9973C23.7369 11.1414 24.0921 11.3699 24.3804 11.6688C24.6793 11.9607 24.9079 12.3123 25.0521 12.7027C25.1752 13.0192 25.3228 13.4973 25.3616 14.373C25.4037 15.3224 25.4143 15.6071 25.4143 18.0088C25.4143 20.4104 25.4037 20.6917 25.3616 21.6411Z" fill="white"/>
<path d="M18.0331 13.3778C15.4804 13.3778 13.4092 15.4489 13.4092 18.0018C13.4092 20.5547 15.4804 22.6257 18.0331 22.6257C20.586 22.6257 22.6571 20.5547 22.6571 18.0018C22.6571 15.4489 20.586 13.3778 18.0331 13.3778ZM18.0331 21.0012C16.377 21.0012 15.0337 19.658 15.0337 18.0018C15.0337 16.3455 16.377 15.0023 18.0331 15.0023C19.6894 15.0023 21.0326 16.3455 21.0326 18.0018C21.0326 19.658 19.6894 21.0012 18.0331 21.0012Z" fill="white"/>
<path d="M23.9199 13.195C23.9199 13.7911 23.4365 14.2745 22.8402 14.2745C22.2441 14.2745 21.7607 13.7911 21.7607 13.195C21.7607 12.5987 22.2441 12.1155 22.8402 12.1155C23.4365 12.1155 23.9199 12.5987 23.9199 13.195Z" fill="white"/>
</g>
<defs>
<clipPath id="clip0_3_170">
<rect width="18" height="18" fill="white" transform="translate(9 9)"/>
</clipPath>
</defs>
</svg>
