<svg width="50" height="50" viewBox="0 0 50 50" fill="none" xmlns="http://www.w3.org/2000/svg">
<path d="M25 0C11.2142 0 0 11.2142 0 25C0 38.7858 11.2142 50 25 50C38.7858 50 50 38.7839 50 25C50 11.2161 38.7858 0 25 0ZM25 46.1271C13.3521 46.1271 3.87295 36.6499 3.87295 25C3.87295 13.3501 13.3521 3.87295 25 3.87295C36.6479 3.87295 46.1271 13.3501 46.1271 25C46.1271 36.6499 36.6499 46.1271 25 46.1271Z" fill="white"/>
<path d="M34.6822 22.8892H26.9363V15.1433C26.9363 14.0744 26.0707 13.2068 24.9998 13.2068C23.9289 13.2068 23.0633 14.0744 23.0633 15.1433V22.8892H15.3174C14.2465 22.8892 13.3809 23.7568 13.3809 24.8257C13.3809 25.8947 14.2465 26.7623 15.3174 26.7623H23.0633V34.5082C23.0633 35.5771 23.9289 36.4447 24.9998 36.4447C26.0707 36.4447 26.9363 35.5771 26.9363 34.5082V26.7623H34.6822C35.7531 26.7623 36.6188 25.8947 36.6188 24.8257C36.6188 23.7568 35.7531 22.8892 34.6822 22.8892Z" fill="white"/>
</svg>
