<svg width="134" height="134" viewBox="0 0 134 134" fill="none" xmlns="http://www.w3.org/2000/svg">
<g filter="url(#filter0_d_2161_56)">
<circle cx="67" cy="63" r="37" fill="white"/>
</g>
<g clip-path="url(#clip0_2161_56)">
<path d="M76.6238 43H66.1954C65.5389 43 65.0068 43.5322 65.0068 44.1885V45.0138C65.0068 46.8099 66.1945 48.3338 67.8257 48.8415V50.6185C67.8257 52.1782 68.8275 53.5075 70.2211 53.999V55.1169C70.609 55.0591 71.0058 55.0287 71.4096 55.0287C71.8133 55.0287 72.2102 55.059 72.5981 55.1169V53.999C73.9916 53.5076 74.9933 52.1781 74.9933 50.6185V48.8415C76.6246 48.3339 77.8123 46.8099 77.8123 45.0138V44.1885C77.8123 43.5322 77.2801 43 76.6238 43Z" fill="#F2994A"/>
<path d="M60.1592 56.9621L60.1454 56.9758C59.1684 57.9529 58.6684 59.3049 58.774 60.6851C58.9 62.3343 59.0742 65.5687 58.8242 68.7013C58.4727 73.1039 57.4899 75.0093 56.7273 75.8325C56.2326 76.3664 55.6871 76.615 55.0103 76.615C54.3031 76.615 52.1511 76.615 51.9192 71.0101C51.8461 69.2415 52.0091 67.4232 52.4037 65.606L53.7208 59.5406L54.1337 59.6303C54.2186 59.6487 54.3035 59.6576 54.387 59.6576C54.934 59.6576 55.4265 59.2775 55.5473 58.7211C55.6866 58.0796 55.2795 57.4467 54.638 57.3074L54.2251 57.2178L56.336 47.497C56.4753 46.8556 56.0682 46.2226 55.4267 46.0833C54.7855 45.9437 54.1522 46.3511 54.013 46.9926L51.9022 56.7134L51.4614 56.6177C50.8205 56.4783 50.187 56.8855 50.0477 57.527C49.9084 58.1685 50.3155 58.8014 50.957 58.9407L51.3977 59.0364L50.0806 65.1017C49.643 67.1168 49.4624 69.1376 49.544 71.1085C49.6399 73.427 50.046 75.1874 50.7855 76.4903C51.7147 78.1271 53.1754 78.9922 55.01 78.9922C56.3572 78.9922 57.5215 78.4727 58.4708 77.4482C61.6605 74.0053 61.5147 65.3544 61.1439 60.5041C61.0914 59.8163 61.34 59.143 61.826 58.6569L61.8397 58.6431C62.6659 57.8169 63.9589 57.7349 64.878 58.3967C65.3437 57.7454 65.9043 57.1667 66.5394 56.6802C64.6832 55.1244 61.9036 55.2176 60.1592 56.9621Z" fill="#F2994A"/>
<path d="M78.0572 71.6516C78.4532 70.8562 78.659 69.9953 78.659 69.1141C78.659 67.5141 77.9802 65.9972 76.7689 64.8357C76.9587 64.2632 77.0571 63.6601 77.0571 63.0533C77.0571 59.9393 74.5237 57.406 71.4098 57.406C68.2959 57.406 65.7625 59.9394 65.7625 63.0533C65.7625 63.6601 65.8608 64.2633 66.0507 64.8357C64.8394 65.9972 64.1605 67.5141 64.1605 69.1141C64.1605 69.9952 64.3664 70.8563 64.7624 71.6516C63.2139 73.1027 62.3447 75.0105 62.3447 77.0217C62.3447 79.1968 63.3369 81.2221 65.1386 82.7244C65.3522 82.9026 65.6217 83.0001 65.8998 83.0001H76.9201C77.1983 83.0001 77.4676 82.9026 77.6813 82.7244C79.4829 81.2221 80.4751 79.1968 80.4751 77.0217C80.4748 75.0102 79.6056 73.1027 78.0572 71.6516Z" fill="#F2994A"/>
</g>
<defs>
<filter id="filter0_d_2161_56" x="0" y="0" width="134" height="134" filterUnits="userSpaceOnUse" color-interpolation-filters="sRGB">
<feFlood flood-opacity="0" result="BackgroundImageFix"/>
<feColorMatrix in="SourceAlpha" type="matrix" values="0 0 0 0 0 0 0 0 0 0 0 0 0 0 0 0 0 0 127 0" result="hardAlpha"/>
<feOffset dy="4"/>
<feGaussianBlur stdDeviation="15"/>
<feColorMatrix type="matrix" values="0 0 0 0 0 0 0 0 0 0 0 0 0 0 0 0 0 0 0.08 0"/>
<feBlend mode="normal" in2="BackgroundImageFix" result="effect1_dropShadow_2161_56"/>
<feBlend mode="normal" in="SourceGraphic" in2="effect1_dropShadow_2161_56" result="shape"/>
</filter>
<clipPath id="clip0_2161_56">
<rect width="40" height="40" fill="white" transform="translate(45 43)"/>
</clipPath>
</defs>
</svg>
