<svg width="180" height="180" viewBox="0 0 180 180" fill="none" xmlns="http://www.w3.org/2000/svg">
<g filter="url(#filter0_d_2156_11)">
<circle cx="90" cy="86" r="60" fill="white"/>
</g>
<g clip-path="url(#clip0_2156_11)">
<path d="M114.184 60.7988C114.143 60.2557 113.67 59.8486 113.127 59.8898C112.584 59.9308 112.177 60.4042 112.218 60.9473C112.428 63.7323 112.13 67.7945 109.516 71.3308C106.898 74.8721 103.184 76.104 101.189 76.766C98.235 77.7461 95.523 78.0014 93.0076 77.9355C93.228 77.4598 93.352 76.9305 93.352 76.3725C93.352 74.6355 92.1583 73.1719 90.5483 72.7589V71.4733H95.8133C97.807 71.4733 99.4289 69.8513 99.4289 67.8577V66.8059C99.4289 66.2612 98.9874 65.8199 98.4429 65.8199H93.6442L95.6172 59.4556C95.7974 58.8746 95.6938 58.2604 95.3328 57.7708C94.9719 57.2812 94.4161 57.0004 93.8078 57.0004H88.5762C88.0316 57.0004 87.5901 57.4417 87.5901 57.9864C87.5901 58.5311 88.0316 58.9724 88.5762 58.9724H93.7024L91.5795 65.82H87.5141L84.609 57.6556C84.4265 57.1425 83.8623 56.8751 83.3495 57.0571C82.8363 57.2397 82.5685 57.8037 82.751 58.3167L85.4209 65.8198H80.7596C80.2151 65.8198 79.7736 66.2611 79.7736 66.8058V67.8576C79.7736 69.8512 81.3955 71.4731 83.3892 71.4731H88.5764V72.7927C87.0274 73.246 85.8922 74.6788 85.8922 76.3725C85.8922 76.6471 85.9228 76.9145 85.9795 77.1723C82.0637 76.6198 78.6586 76.3517 75.8499 78.9504C75.0855 79.6579 73.2813 81.6105 73.0391 84.4552C73.0227 84.6478 72.6804 89.1996 76.3651 91.6687C77.8328 92.6521 79.3547 92.9248 80.591 92.9248C81.0846 92.9248 81.5322 92.8813 81.913 92.8223C82.199 93.6453 82.7744 94.3335 83.5169 94.7655C79.8697 96.7905 77.3954 100.682 77.3954 105.141C77.3954 107.348 78.0102 109.492 79.1499 111.347H76.376C73.8303 111.347 71.7593 113.418 71.7593 115.964V116.014C71.7593 116.559 72.2007 117 72.7453 117H106.457C107.002 117 107.443 116.559 107.443 116.014V115.964C107.443 113.418 105.372 111.347 102.827 111.347H81.5576C80.1424 109.593 79.3674 107.406 79.3674 105.141C79.3674 99.6893 83.8028 95.254 89.2544 95.254C94.7061 95.254 99.1415 99.6893 99.1415 105.141C99.1415 106.179 98.9817 107.201 98.6662 108.179C98.4991 108.697 98.7838 109.253 99.3021 109.42C99.8205 109.587 100.376 109.302 100.543 108.784C100.922 107.61 101.114 106.385 101.114 105.141C101.114 100.815 98.7855 97.0242 95.3171 94.9525C96.5944 94.3941 97.4897 93.1191 97.4897 91.6383C97.4897 90.0112 96.409 88.632 94.9277 88.1799C94.6755 86.5532 93.6929 85.1656 92.3271 84.3613C92.9265 83.6992 93.2921 82.8218 93.2921 81.8605C93.2921 81.1398 93.0861 80.4666 92.7306 79.8955C95.4845 79.9852 98.5213 79.7289 101.81 78.6379C103.856 77.9592 108.112 76.547 111.101 72.5033C114.233 68.2674 114.377 63.3517 114.184 60.7988ZM81.0879 113.319C81.0921 113.319 81.0962 113.319 81.1004 113.319C81.1053 113.319 81.1101 113.319 81.1151 113.319H102.827C103.956 113.319 104.922 114.03 105.301 115.028H73.9023C74.2809 114.03 75.247 113.319 76.376 113.319H81.0879ZM83.3891 69.5011C82.483 69.5011 81.7456 68.7638 81.7456 67.8577V67.7919H86.8183H92.3062H97.4569V67.8577C97.4569 68.7639 96.7196 69.5011 95.8134 69.5011H83.3891ZM89.3768 74.6336C89.437 74.6451 89.4989 74.6516 89.5624 74.6516C89.6423 74.6516 89.7197 74.6411 89.7942 74.6231C90.683 74.7099 91.3801 75.461 91.3801 76.3724C91.3801 76.953 91.0958 77.4672 90.6607 77.7874C89.8454 77.709 89.0515 77.6086 88.2767 77.5014C88.0199 77.1958 87.8644 76.802 87.8644 76.3724C87.8642 75.4865 88.5235 74.7536 89.3768 74.6336ZM89.5624 80.1023C90.5318 80.1023 91.3203 80.8908 91.3203 81.8602C91.3203 82.8294 90.5318 83.618 89.5624 83.618C88.5931 83.6181 87.8046 82.8294 87.8046 81.8602C87.8046 80.8909 88.5931 80.1023 89.5624 80.1023ZM81.8031 90.8384C80.8577 91.0107 79.0865 91.118 77.4629 90.03C74.7331 88.2008 75.001 84.6576 75.0041 84.6219C75.1876 82.4644 76.5935 80.9488 77.1893 80.3976C79.5363 78.2257 82.5269 78.6611 86.6661 79.2632C86.7308 79.2727 86.7964 79.2822 86.8616 79.2915C86.2245 79.961 85.8324 80.8654 85.8324 81.8602C85.8324 82.8359 86.2094 83.7248 86.8247 84.39C85.4851 85.1985 84.5238 86.5726 84.2747 88.1794C83.0437 88.5552 82.0903 89.5716 81.8031 90.8384ZM93.8742 89.9948C94.7804 89.9948 95.5176 90.732 95.5176 91.6382C95.5176 92.5444 94.7804 93.2816 93.8742 93.2816H85.3283C84.4221 93.2816 83.6849 92.5444 83.6849 91.6382C83.6849 90.732 84.4221 89.9948 85.3283 89.9948H93.8742ZM92.8741 88.0226H86.3286C86.7528 86.6168 88.0592 85.5903 89.6013 85.5903C91.1434 85.5903 92.4497 86.6171 92.8741 88.0226Z" fill="#F2994A"/>
</g>
<defs>
<filter id="filter0_d_2156_11" x="0" y="0" width="180" height="180" filterUnits="userSpaceOnUse" color-interpolation-filters="sRGB">
<feFlood flood-opacity="0" result="BackgroundImageFix"/>
<feColorMatrix in="SourceAlpha" type="matrix" values="0 0 0 0 0 0 0 0 0 0 0 0 0 0 0 0 0 0 127 0" result="hardAlpha"/>
<feOffset dy="4"/>
<feGaussianBlur stdDeviation="15"/>
<feColorMatrix type="matrix" values="0 0 0 0 0 0 0 0 0 0 0 0 0 0 0 0 0 0 0.08 0"/>
<feBlend mode="normal" in2="BackgroundImageFix" result="effect1_dropShadow_2156_11"/>
<feBlend mode="normal" in="SourceGraphic" in2="effect1_dropShadow_2156_11" result="shape"/>
</filter>
<clipPath id="clip0_2156_11">
<rect width="60" height="60" fill="white" transform="translate(63 57)"/>
</clipPath>
</defs>
</svg>
