<svg width="133" height="16" viewBox="0 0 133 16" fill="none" xmlns="http://www.w3.org/2000/svg">
<path d="M45.9557 6.04621C45.8444 5.70813 45.539 5.46802 45.1778 5.43605L40.2712 4.99849L38.3309 0.538446C38.1879 0.211582 37.8621 0 37.5001 0C37.1381 0 36.8123 0.211582 36.6692 0.53921L34.729 4.99849L29.8215 5.43605C29.461 5.46878 29.1564 5.70813 29.0445 6.04621C28.9326 6.38428 29.0359 6.75509 29.3087 6.98884L33.0175 10.1833L31.9239 14.9147C31.8439 15.2626 31.9813 15.6222 32.2753 15.8308C32.4332 15.9429 32.6181 16 32.8044 16C32.9651 16 33.1245 15.9575 33.2676 15.8734L37.5001 13.389L41.731 15.8734C42.0406 16.0563 42.4308 16.0396 42.7241 15.8308C43.0181 15.6215 43.1555 15.2618 43.0755 14.9147L41.9818 10.1833L45.6907 6.98947C45.9634 6.75509 46.0676 6.38492 45.9557 6.04621Z" fill="#F2994A"/>
<path d="M74.9557 6.04621C74.8444 5.70813 74.539 5.46802 74.1778 5.43605L69.2712 4.99849L67.3309 0.538446C67.1879 0.211582 66.8621 0 66.5001 0C66.1381 0 65.8123 0.211582 65.6692 0.53921L63.729 4.99849L58.8215 5.43605C58.461 5.46878 58.1564 5.70813 58.0445 6.04621C57.9326 6.38428 58.0359 6.75509 58.3087 6.98884L62.0175 10.1833L60.9239 14.9147C60.8439 15.2626 60.9813 15.6222 61.2753 15.8308C61.4332 15.9429 61.6181 16 61.8044 16C61.9651 16 62.1245 15.9575 62.2676 15.8734L66.5001 13.389L70.731 15.8734C71.0406 16.0563 71.4308 16.0396 71.7241 15.8308C72.0181 15.6215 72.1555 15.2618 72.0755 14.9147L70.9818 10.1833L74.6907 6.98947C74.9634 6.75509 75.0676 6.38492 74.9557 6.04621Z" fill="#F2994A"/>
<path d="M103.956 6.04621C103.844 5.70813 103.539 5.46802 103.178 5.43605L98.2712 4.99849L96.3309 0.538446C96.1879 0.211582 95.8621 0 95.5001 0C95.1381 0 94.8123 0.211582 94.6692 0.53921L92.729 4.99849L87.8215 5.43605C87.461 5.46878 87.1564 5.70813 87.0445 6.04621C86.9326 6.38428 87.0359 6.75509 87.3087 6.98884L91.0175 10.1833L89.9239 14.9147C89.8439 15.2626 89.9813 15.6222 90.2753 15.8308C90.4332 15.9429 90.6181 16 90.8044 16C90.9651 16 91.1245 15.9575 91.2676 15.8734L95.5001 13.389L99.731 15.8734C100.041 16.0563 100.431 16.0396 100.724 15.8308C101.018 15.6215 101.155 15.2618 101.075 14.9147L99.9818 10.1833L103.691 6.98947C103.963 6.75509 104.068 6.38492 103.956 6.04621Z" fill="#F2994A"/>
<path d="M132.956 6.04621C132.844 5.70813 132.539 5.46802 132.178 5.43605L127.271 4.99849L125.331 0.538446C125.188 0.211582 124.862 0 124.5 0C124.138 0 123.812 0.211582 123.669 0.53921L121.729 4.99849L116.822 5.43605C116.461 5.46878 116.156 5.70813 116.044 6.04621C115.933 6.38428 116.036 6.75509 116.309 6.98884L120.018 10.1833L118.924 14.9147C118.844 15.2626 118.981 15.6222 119.275 15.8308C119.433 15.9429 119.618 16 119.804 16C119.965 16 120.125 15.9575 120.268 15.8734L124.5 13.389L128.731 15.8734C129.041 16.0563 129.431 16.0396 129.724 15.8308C130.018 15.6215 130.155 15.2618 130.075 14.9147L128.982 10.1833L132.691 6.98947C132.963 6.75509 133.068 6.38492 132.956 6.04621Z" fill="#F2994A"/>
<path d="M16.9557 6.04621C16.8444 5.70813 16.539 5.46802 16.1778 5.43605L11.2712 4.99849L9.33094 0.538446C9.18788 0.211582 8.86207 0 8.50007 0C8.13807 0 7.81225 0.211582 7.66919 0.53921L5.72897 4.99849L0.821535 5.43605C0.460961 5.46878 0.156419 5.70813 0.0444859 6.04621C-0.0674476 6.38428 0.0359255 6.75509 0.30869 6.98884L4.01754 10.1833L2.92389 14.9147C2.84386 15.2626 2.98135 15.6222 3.27525 15.8308C3.43323 15.9429 3.61806 16 3.80444 16C3.96514 16 4.12455 15.9575 4.26761 15.8734L8.50007 13.389L12.731 15.8734C13.0406 16.0563 13.4308 16.0396 13.7241 15.8308C14.0181 15.6215 14.1555 15.2618 14.0755 14.9147L12.9818 10.1833L16.6907 6.98947C16.9634 6.75509 17.0676 6.38492 16.9557 6.04621Z" fill="#F2994A"/>
</svg>
