<svg width="134" height="134" viewBox="0 0 134 134" fill="none" xmlns="http://www.w3.org/2000/svg">
<g filter="url(#filter0_d_2161_44)">
<circle cx="67" cy="63" r="37" fill="white"/>
</g>
<path d="M70.826 59.6113C72.3059 58.7569 73.9464 58.2225 75.6335 58.0355C75.6409 58.0229 75.6487 58.0106 75.6561 57.9979C78.413 53.2227 76.7711 47.0948 71.9959 44.3377C67.2207 41.5808 61.0927 43.2228 58.3357 47.998C56.4808 51.2111 56.6173 55.0363 58.3598 58.0352C60.0477 58.2219 61.689 58.7565 63.1695 59.6113C64.6746 60.4803 65.9536 61.6325 66.9517 62.9954C66.9608 62.9954 66.97 62.9959 66.979 62.9959C67.0008 62.9959 67.0224 62.9949 67.0441 62.9949C68.0422 61.6322 69.3211 60.4802 70.826 59.6113ZM66.7225 58.1489L65.9989 58.6244C65.8005 58.7547 65.5772 58.8171 65.3564 58.8171C64.975 58.8171 64.6011 58.6312 64.3759 58.2887C64.0455 57.7859 64.1527 57.1231 64.6037 56.7466C64.1527 56.3701 64.0455 55.7074 64.3759 55.2046C64.7313 54.6638 65.4577 54.5132 65.9988 54.8688L66.7224 55.3444L67.446 54.8688C67.9869 54.5134 68.7134 54.6638 69.0689 55.2046C69.3993 55.7073 69.2921 56.3701 68.8411 56.7466C69.2921 57.1231 69.3993 57.7858 69.0689 58.2887C68.8438 58.6311 68.4698 58.8171 68.0884 58.8171C67.8676 58.8171 67.6443 58.7548 67.4459 58.6244L66.7225 58.1489Z" fill="#F2994A"/>
<path d="M65.6886 65.3601C64.8399 63.8615 63.5943 62.5627 61.9979 61.641C57.2227 58.884 51.0947 60.526 48.3377 65.3012C45.5808 70.0764 47.2228 76.2043 51.998 78.9614C53.5689 79.8684 55.2855 80.2992 56.981 80.2992C60.4394 80.2992 63.808 78.5054 65.658 75.3012C65.6683 75.2833 65.678 75.2652 65.6882 75.2472C64.5657 72.6913 64.3452 69.8485 65.0796 67.1077C65.2411 66.5052 65.445 65.9217 65.6886 65.3601ZM56.6712 74.547C56.8293 75.0805 56.5892 75.6669 56.0745 75.9256C55.9057 76.0104 55.726 76.0508 55.549 76.0508C55.12 76.0508 54.7069 75.8143 54.5011 75.405L54.1529 74.7122L53.3789 74.757C53.3558 74.7583 53.3329 74.759 53.3101 74.759C52.6939 74.759 52.1773 74.2778 52.1413 73.6548C52.1081 73.0797 52.4958 72.5785 53.0369 72.4487C52.8787 71.9151 53.1189 71.3288 53.6336 71.0701C54.2117 70.7794 54.9161 71.0125 55.2069 71.5908L55.5551 72.2835L56.3291 72.2388C56.9762 72.2028 57.5293 72.6949 57.5667 73.341C57.6 73.916 57.2124 74.4172 56.6712 74.547Z" fill="#F2994A"/>
<path d="M82.8295 59.4321C82.9035 59.3614 82.9769 59.2899 83.0495 59.2173C85.8808 56.386 87.2996 52.4721 86.9419 48.4792C86.8998 48.0087 86.5269 47.6358 86.0564 47.5937C83.4734 47.3622 80.9241 47.8752 78.6789 49.032C79.6512 51.9016 79.5714 55.1137 78.2686 58.0279C79.8803 58.1973 81.4281 58.6808 82.8295 59.4321Z" fill="#F2994A"/>
<path d="M85.6586 65.3009C82.9016 60.5257 76.7737 58.8838 71.9984 61.6407C67.2232 64.3977 65.5813 70.5256 68.3382 75.3009C70.1884 78.5054 73.5564 80.2988 77.0152 80.2988C78.7104 80.2988 80.4277 79.8679 81.9983 78.961C86.7736 76.2041 88.4155 70.0762 85.6586 65.3009ZM81.855 73.6545C81.819 74.2776 81.3024 74.7588 80.6862 74.7588C80.6634 74.7588 80.6406 74.7581 80.6174 74.7568L79.8435 74.712L79.4953 75.4048C79.2895 75.8141 78.8763 76.0505 78.4473 76.0505C78.2704 76.0505 78.0907 76.0103 77.9218 75.9254C77.4072 75.6666 77.167 75.0803 77.3251 74.5468C76.784 74.417 76.3963 73.9158 76.4296 73.3407C76.467 72.6946 77.0214 72.2016 77.6672 72.2385L78.4411 72.2832L78.7893 71.5905C79.08 71.0123 79.7845 70.7792 80.3627 71.0698C80.8774 71.3286 81.1175 71.9149 80.9594 72.4484C81.5006 72.5783 81.8882 73.0795 81.855 73.6545Z" fill="#F2994A"/>
<defs>
<filter id="filter0_d_2161_44" x="0" y="0" width="134" height="134" filterUnits="userSpaceOnUse" color-interpolation-filters="sRGB">
<feFlood flood-opacity="0" result="BackgroundImageFix"/>
<feColorMatrix in="SourceAlpha" type="matrix" values="0 0 0 0 0 0 0 0 0 0 0 0 0 0 0 0 0 0 127 0" result="hardAlpha"/>
<feOffset dy="4"/>
<feGaussianBlur stdDeviation="15"/>
<feColorMatrix type="matrix" values="0 0 0 0 0 0 0 0 0 0 0 0 0 0 0 0 0 0 0.08 0"/>
<feBlend mode="normal" in2="BackgroundImageFix" result="effect1_dropShadow_2161_44"/>
<feBlend mode="normal" in="SourceGraphic" in2="effect1_dropShadow_2161_44" result="shape"/>
</filter>
</defs>
</svg>
