<svg width="180" height="180" viewBox="0 0 180 180" fill="none" xmlns="http://www.w3.org/2000/svg">
<g filter="url(#filter0_d_2156_10)">
<circle cx="90" cy="86" r="60" fill="white"/>
</g>
<g clip-path="url(#clip0_2156_10)">
<path d="M96.0146 93.978C96.0146 99.4971 100.489 103.971 106.008 103.971C111.527 103.971 116.001 99.4971 116.001 93.978C116.001 88.4593 111.527 83.9851 106.008 83.9851C100.491 83.9912 96.0207 88.4617 96.0146 93.978ZM106.008 85.9835C110.423 85.9835 114.002 89.5627 114.002 93.978C114.002 98.3933 110.423 101.972 106.008 101.972C101.593 101.972 98.0135 98.3933 98.0135 93.978C98.0183 89.5651 101.595 85.9884 106.008 85.9835Z" fill="#F2994A"/>
<path d="M100.298 113.965H111.719V115.963H100.298V113.965Z" fill="#F2994A"/>
<path d="M96.0146 109.967H116.001V111.966H96.0146V109.967Z" fill="#F2994A"/>
<path d="M74.0298 109.967H76.0286V111.966H74.0298V109.967Z" fill="#F2994A"/>
<path d="M68.0337 111.966H70.0321V113.964H68.0337V111.966Z" fill="#F2994A"/>
<path d="M74.1293 104.344C79.3473 95.2561 82.6213 85.1834 83.7437 74.7643L93.0375 84.0029C93.2234 84.188 93.4745 84.2924 93.737 84.2936C93.791 84.294 93.8454 84.2896 93.8986 84.2807C94.2155 84.2291 94.488 84.0283 94.6312 83.7413C96.5151 79.9811 95.7773 75.4368 92.8005 72.466L91.9833 71.6484H99.0122C99.5641 71.6488 100.012 71.2017 100.012 70.6498C100.012 70.5417 99.9947 70.4345 99.9608 70.3325C98.6336 66.3413 94.8989 63.6499 90.6928 63.6539H89.3938L94.3844 58.6343C94.7739 58.2432 94.7723 57.6107 94.3812 57.2212C94.3054 57.1458 94.2183 57.0829 94.1228 57.0354C90.361 55.1494 85.8143 55.8868 82.8414 58.8653L81.8872 59.8195C81.5759 60.1328 81.2869 60.4666 81.0208 60.8189C80.7579 60.4666 80.4709 60.1328 80.1621 59.8195L79.2078 58.8653C76.2374 55.8888 71.6931 55.1514 67.9337 57.0354C67.4398 57.2821 67.2395 57.8824 67.4862 58.3758C67.5338 58.4714 67.5967 58.5585 67.6721 58.6343L72.6683 63.6539H71.3565C67.1504 63.6499 63.4152 66.3413 62.0884 70.3325C61.9135 70.8558 62.1961 71.4218 62.7198 71.5968C62.8218 71.631 62.929 71.6484 63.037 71.6484H70.0591L69.2419 72.466C66.2651 75.4368 65.5273 79.9811 67.4108 83.7413C67.5543 84.0283 67.8269 84.2291 68.1433 84.2807C68.197 84.2896 68.251 84.294 68.3054 84.2936C68.5695 84.2936 68.8227 84.1892 69.0097 84.0029L77.6642 75.3997C76.5926 84.9757 72.986 94.0926 67.2161 101.81C65.8728 101.457 64.511 101.179 63.137 100.978L62.5125 100.916L62.3126 102.905L62.8951 102.962C63.8945 103.105 64.8875 103.307 65.8752 103.536C65.6753 103.786 65.4753 104.041 65.2685 104.288L66.8013 105.57C74.4809 96.4397 79.0591 85.1043 79.8746 73.2013L81.0248 72.0584L81.886 72.9147C80.8353 85.6442 76.466 97.8762 69.2137 108.39L70.8505 109.536C71.6362 108.414 72.3857 107.25 73.1122 106.064C77.7867 108.3 81.9142 111.534 85.2039 115.537L86.7496 114.271C84.8044 111.906 82.5757 109.789 80.1133 107.969H121.997V105.97H77.1526C76.1729 105.378 75.1618 104.843 74.1293 104.344ZM93.3701 81.5135L82.8116 71.0158C85.5123 70.2095 88.4376 70.9412 90.4404 72.9243L91.3947 73.879C93.3939 75.8746 94.1502 78.7987 93.3701 81.5135ZM97.4875 69.65H89.2132C87.2862 68.7328 85.112 68.4732 83.0232 68.9114C84.4774 66.8666 86.831 65.6523 89.3402 65.6527H90.6892C93.514 65.6483 96.118 67.1794 97.4875 69.65ZM83.297 61.2326L84.2516 60.2783C86.2488 58.2787 89.1741 57.522 91.8901 58.3025L85.9662 64.2614C84.0436 64.969 82.3931 66.2647 81.2486 67.964C80.7837 65.5193 81.5505 63.002 83.3002 61.2326H83.297ZM77.792 60.2783L78.7462 61.2326C79.1913 61.6869 79.5775 62.1957 79.8956 62.7464C79.4429 63.799 79.1844 64.9242 79.132 66.0684C78.235 65.2846 77.2017 64.6727 76.0842 64.2614L70.1591 58.3025C72.8743 57.5224 75.7988 58.2791 77.7948 60.2783H77.792ZM71.3532 65.6527H72.7026C75.2134 65.6503 77.5702 66.8642 79.026 68.9102C76.9385 68.4736 74.7651 68.7332 72.8392 69.65H64.5618C65.9309 67.1807 68.5328 65.6499 71.3565 65.6527H71.3532ZM68.6791 81.5135C67.899 78.7987 68.6558 75.8746 70.655 73.879L71.6092 72.9243C73.0469 71.4903 74.9965 70.6877 77.0276 70.6941C77.777 70.6945 78.5225 70.8014 79.2421 71.0118L68.6791 81.5135Z" fill="#F2994A"/>
</g>
<defs>
<filter id="filter0_d_2156_10" x="0" y="0" width="180" height="180" filterUnits="userSpaceOnUse" color-interpolation-filters="sRGB">
<feFlood flood-opacity="0" result="BackgroundImageFix"/>
<feColorMatrix in="SourceAlpha" type="matrix" values="0 0 0 0 0 0 0 0 0 0 0 0 0 0 0 0 0 0 127 0" result="hardAlpha"/>
<feOffset dy="4"/>
<feGaussianBlur stdDeviation="15"/>
<feColorMatrix type="matrix" values="0 0 0 0 0 0 0 0 0 0 0 0 0 0 0 0 0 0 0.08 0"/>
<feBlend mode="normal" in2="BackgroundImageFix" result="effect1_dropShadow_2156_10"/>
<feBlend mode="normal" in="SourceGraphic" in2="effect1_dropShadow_2156_10" result="shape"/>
</filter>
<clipPath id="clip0_2156_10">
<rect width="60" height="60" fill="white" transform="translate(62 56)"/>
</clipPath>
</defs>
</svg>
