<svg width="36" height="36" viewBox="0 0 36 36" fill="none" xmlns="http://www.w3.org/2000/svg">
<circle cx="18" cy="18" r="18" fill="white"/>
<path d="M29.312 6.68458C23.0627 0.437151 12.932 0.438651 6.68458 6.68802C0.43715 12.9374 0.43865 23.068 6.68802 29.3154C12.9374 35.5629 23.068 35.5614 29.3154 29.312C32.3158 26.3107 34.0009 22.2404 34 17.9966C33.9991 13.7534 32.3128 9.68445 29.312 6.68458ZM26.2314 24.2878C26.2308 24.2885 26.2301 24.2892 26.2293 24.2899V24.2846L25.4186 25.0899C24.3702 26.1516 22.8433 26.5884 21.3919 26.2419C19.9298 25.8506 18.5398 25.2276 17.2746 24.3966C16.0993 23.6454 15.01 22.7673 14.0266 21.7779C13.1218 20.8797 12.309 19.8935 11.6 18.8339C10.8245 17.6938 10.2106 16.4518 9.77596 15.1433C9.27764 13.606 9.69058 11.9192 10.8426 10.7859L11.792 9.83664C12.0559 9.57151 12.4848 9.57057 12.7498 9.83451C12.7505 9.8352 12.7513 9.83589 12.752 9.83664L15.7493 12.8339C16.0144 13.0979 16.0153 13.5268 15.7514 13.7918C15.7507 13.7925 15.75 13.7932 15.7493 13.7939L13.9893 15.5539C13.4843 16.0534 13.4208 16.8472 13.84 17.4206C14.4765 18.2943 15.181 19.1163 15.9466 19.8793C16.8003 20.7367 17.7284 21.5166 18.7199 22.21C19.2929 22.6096 20.0696 22.5422 20.5653 22.05L22.2666 20.322C22.5305 20.0569 22.9594 20.0559 23.2244 20.3199C23.2251 20.3206 23.2258 20.3212 23.2266 20.322L26.2293 23.33C26.4944 23.5939 26.4954 24.0227 26.2314 24.2878Z" fill="#9B51E0"/>
</svg>
