<svg width="24" height="24" viewBox="0 0 24 24" fill="none" xmlns="http://www.w3.org/2000/svg">
<circle cx="12" cy="12" r="12" fill="white"/>
<path d="M19.07 4.92786C15.1642 1.02322 8.83251 1.02416 4.92786 4.93001C1.02322 8.83586 1.02416 15.1675 4.93001 19.0721C8.83587 22.9768 15.1675 22.9758 19.0722 19.07C20.9474 17.1942 22.0006 14.6502 22 11.9979C21.9995 9.3459 20.9455 6.80278 19.07 4.92786ZM17.1447 15.9299C17.1442 15.9303 17.1438 15.9308 17.1433 15.9312V15.9279L16.6366 16.4312C15.9814 17.0948 15.027 17.3678 14.12 17.1512C13.2061 16.9066 12.3374 16.5172 11.5466 15.9979C10.812 15.5284 10.1313 14.9796 9.51665 14.3612C8.95114 13.7998 8.4431 13.1834 7.99997 12.5212C7.51528 11.8086 7.13165 11.0324 6.85997 10.2145C6.54853 9.25375 6.80661 8.1995 7.52665 7.49122L8.11997 6.8979C8.28493 6.7322 8.55298 6.73161 8.71864 6.89657C8.71907 6.897 8.71954 6.89743 8.71997 6.8979L10.5933 8.77122C10.759 8.93618 10.7596 9.20422 10.5946 9.36989C10.5942 9.37032 10.5938 9.37075 10.5933 9.37122L9.49329 10.4712C9.17767 10.7834 9.13798 11.2795 9.39997 11.6379C9.79782 12.1839 10.2381 12.6977 10.7167 13.1746C11.2502 13.7104 11.8302 14.1979 12.45 14.6312C12.8081 14.881 13.2935 14.8389 13.6033 14.5312L14.6666 13.4512C14.8316 13.2855 15.0996 13.285 15.2653 13.4499C15.2657 13.4503 15.2661 13.4508 15.2666 13.4512L17.1433 15.3312C17.309 15.4962 17.3096 15.7642 17.1447 15.9299Z" fill="#9B51E0"/>
</svg>
